<svg width="40" height="30" viewBox="0 0 40 30" fill="none" xmlns="http://www.w3.org/2000/svg">
<path d="M37.4843 16.2211C38.1 15.5124 38.6043 14.6759 39.0609 13.6063C39.1704 13.348 39.1496 13.0524 39.0035 12.8124C38.8574 12.5724 38.6043 12.4185 38.3243 12.3976C37.3774 12.328 36.6278 12.0472 35.7887 11.6437C33.0643 10.3585 31.3043 7.58109 31.3043 4.56891C31.3043 3.66456 31.5643 2.64283 32.0983 1.44457C32.2139 1.1863 32.1957 0.887174 32.0504 0.644565C31.9052 0.401087 31.6513 0.244565 31.3678 0.223696C31.1861 0.209782 30.92 0.213261 30.6817 0.217609L30.4348 0.221087C27.4243 0.221087 24.6339 1.63848 22.8322 4.01848C21.9052 3.81065 20.9565 3.69935 20 3.69935C13.7974 3.69935 8.43913 8.15152 7.22522 14.1646C3.19043 14.4741 0 17.848 0 21.9602C0 26.275 3.5113 29.7863 7.82609 29.7863H32.1739C36.4887 29.7863 40 26.275 40 21.9602C40 19.7715 39.073 17.6924 37.4843 16.2211ZM23.9087 5.475C25.2861 3.38804 27.5513 2.09935 30.027 1.97152C29.7174 2.90283 29.5652 3.76022 29.5652 4.56891C29.5652 8.25065 31.7165 11.6446 35.04 13.2133C35.6157 13.4898 36.24 13.7585 36.967 13.9376C36.58 14.6289 36.1461 15.1741 35.6209 15.642C34.1965 16.9133 32.3548 17.6124 30.4348 17.6124C29.2548 17.6124 28.1322 17.3602 27.093 16.8611C24.3687 15.5759 22.6087 12.7985 22.6087 9.7863C22.6087 8.24456 23.0574 6.75413 23.9087 5.475ZM32.1739 28.0472H7.82609C4.46957 28.0472 1.73913 25.3167 1.73913 21.9602C1.73913 18.6037 4.46956 15.8733 7.78261 15.8654C7.79217 15.8672 7.80261 15.8672 7.81304 15.868C7.81739 15.8689 7.82087 15.8715 7.82522 15.8724C7.86522 15.8785 7.90522 15.8811 7.94522 15.8811C7.94609 15.8811 7.94783 15.8811 7.9487 15.8811C8.40174 15.8811 8.86783 15.9402 9.33478 16.0576C9.3687 16.0724 9.40435 16.0846 9.44087 16.0941C10.9713 16.5115 12.3052 17.5411 13.1 18.9167C13.34 19.3324 13.8713 19.475 14.2878 19.2341C14.7035 18.9941 14.8461 18.462 14.6052 18.0463C13.6043 16.3141 11.9391 15.0098 10.0217 14.4515C9.98174 14.4333 9.94 14.4185 9.89652 14.4072C9.59217 14.3254 9.28783 14.2637 8.98348 14.2202C10.1452 9.15413 14.7235 5.43848 20.0009 5.43848C20.62 5.43848 21.2357 5.495 21.8426 5.59674C21.2052 6.89413 20.8696 8.32022 20.8696 9.7863C20.8696 13.468 23.0209 16.862 26.3452 18.4306C27.6157 19.042 28.9913 19.3515 30.4348 19.3515C32.533 19.3515 34.553 18.6628 36.2026 17.408C37.5 18.5567 38.2609 20.2141 38.2609 21.9602C38.2609 25.3167 35.5304 28.0472 32.1739 28.0472Z" fill="#AAAAAA"/>
</svg>
