<svg width="24" height="18" viewBox="0 0 24 18" fill="none" xmlns="http://www.w3.org/2000/svg">
<path d="M22.4974 9.73774C23.4584 8.68748 24 7.308 24 5.86956C24 2.70521 21.4252 0.130432 18.2609 0.130432C16.4546 0.130432 14.7814 0.980345 13.6993 2.40887C13.1431 2.28417 12.5734 2.21739 12 2.21739C8.27843 2.21739 5.06348 4.88869 4.33513 8.49652C1.91426 8.68174 0 10.7066 0 13.1739C0 15.7628 2.10678 17.8696 4.69565 17.8696H19.3043C21.8932 17.8696 24 15.7628 24 13.1739C24 11.8643 23.4464 10.62 22.4974 9.73774ZM18.2609 1.17391C20.8497 1.17391 22.9565 3.28069 22.9565 5.86956C22.9565 7.08156 22.4864 8.24243 21.6558 9.11061C21.6005 9.07826 21.5416 9.05374 21.4847 9.02348C21.4294 8.99426 21.3741 8.96556 21.3172 8.93843C21.144 8.85548 20.9671 8.78243 20.7856 8.72191C20.7621 8.71408 20.7397 8.70313 20.7162 8.69582C20.5122 8.63113 20.3035 8.58469 20.0922 8.54869C20.0337 8.53878 19.9753 8.53304 19.9163 8.52522C19.835 8.51426 19.7541 8.49861 19.6717 8.49234C19.1384 5.84765 17.2831 3.67461 14.7741 2.72661C15.6574 1.74417 16.9169 1.17391 18.2609 1.17391ZM19.3043 16.8261H4.69565C2.68174 16.8261 1.04348 15.1878 1.04348 13.1739C1.04348 11.16 2.68174 9.52174 4.66957 9.51704C4.6753 9.51808 4.68156 9.51808 4.68783 9.51861C4.69043 9.51913 4.69252 9.52069 4.69513 9.52121C4.71913 9.52487 4.74313 9.52643 4.76713 9.52643C4.76765 9.52643 4.7687 9.52643 4.76922 9.52643C5.04104 9.52643 5.3207 9.56191 5.60087 9.63235C5.62122 9.64121 5.64261 9.64852 5.66452 9.65426C6.58278 9.90469 7.38313 10.5224 7.86 11.3478C8.004 11.5972 8.32278 11.6828 8.5727 11.5383C8.82209 11.3943 8.90765 11.075 8.76313 10.8256C8.16261 9.78626 7.16348 9.00365 6.01304 8.66869C5.98904 8.65774 5.964 8.64887 5.93791 8.64208C5.7553 8.59304 5.5727 8.556 5.39009 8.52991C6.08661 5.49026 8.83357 3.26087 12 3.26087C12.6005 3.26087 13.1969 3.34069 13.7718 3.49826C13.7723 3.49826 13.7723 3.49826 13.7729 3.49826C13.7734 3.49826 13.7734 3.49878 13.7739 3.49878C16.2089 4.15669 18.0563 6.10069 18.6115 8.52991C18.4289 8.55652 18.2457 8.59304 18.0631 8.64261C18.037 8.64939 18.012 8.65826 17.988 8.66921C17.0588 8.94104 16.2282 9.50035 15.6386 10.248C15.637 10.2501 15.6344 10.2506 15.6329 10.2527C15.6313 10.2548 15.6303 10.2569 15.6287 10.259C15.6266 10.2616 15.6245 10.2631 15.6224 10.2657C15.6203 10.2683 15.6203 10.2715 15.6183 10.2741C15.4748 10.4489 15.3443 10.6356 15.2337 10.8329C15.0929 11.0843 15.1831 11.4021 15.4346 11.543C15.5144 11.5873 15.6021 11.6087 15.6882 11.6087C15.8713 11.6087 16.0487 11.5122 16.1442 11.3416C16.2271 11.1929 16.3247 11.0515 16.4337 10.9205C16.4358 10.9179 16.4363 10.9148 16.4379 10.9122C16.4395 10.9101 16.4426 10.9096 16.4442 10.907C16.9127 10.3059 17.5852 9.86139 18.3365 9.65426C18.3579 9.64852 18.3788 9.64121 18.3986 9.63287C18.6793 9.56243 18.959 9.52695 19.2313 9.52695C19.2642 9.52695 19.272 9.528 19.3043 9.52174C20.0645 9.52174 20.795 9.75548 21.4179 10.1974C22.3816 10.883 22.9565 11.9953 22.9565 13.1739C22.9565 15.1878 21.3183 16.8261 19.3043 16.8261Z" fill="#AAAAAA"/>
</svg>
