<svg width="17" height="24" viewBox="0 0 17 24" fill="none" xmlns="http://www.w3.org/2000/svg">
<path d="M15.0544 4.47612V1.84502H16.2974C16.6082 1.84502 16.8599 1.5933 16.8599 1.28252C16.8599 0.971736 16.6082 0.720016 16.2974 0.720016H1.32382C1.01304 0.720016 0.761322 0.971736 0.761322 1.28252C0.761322 1.5933 1.01304 1.84502 1.32382 1.84502H2.56694V4.47612C2.57503 6.08979 3.23298 7.6321 4.39173 8.75499L7.98944 12.2334L4.55028 15.4698C3.35515 16.5984 2.67821 18.1698 2.67944 19.8138V22.095H1.32382C1.01304 22.095 0.761322 22.3468 0.761322 22.6575C0.761322 22.9683 1.01304 23.22 1.32382 23.22H16.2974C16.6082 23.22 16.8599 22.9683 16.8599 22.6575C16.8599 22.3468 16.6082 22.095 16.2974 22.095H15.1107V19.8556C15.1077 18.1829 14.4033 16.588 13.1694 15.4589L9.63317 12.2281L13.2303 8.75499C14.3889 7.63192 15.0465 6.08979 15.0544 4.47612ZM13.9857 19.8556V22.095H3.80444V19.8138C3.80374 18.4801 4.35341 17.2055 5.32319 16.29L8.8193 13.0063L12.4123 16.289C13.4128 17.2052 13.9837 18.4989 13.9857 19.8556ZM8.81069 11.4568L5.17448 7.9471C4.23388 7.0362 3.6995 5.78516 3.69194 4.47612V1.84502H13.9294V4.47612C13.9217 5.78516 13.3873 7.0362 12.4467 7.9471L8.81069 11.4568Z" fill="#AAAAAA"/>
</svg>
