<svg width="10" height="12" viewBox="0 0 10 12" fill="none" xmlns="http://www.w3.org/2000/svg">
<path d="M8.93806 2.98668C8.89534 2.82659 8.8086 2.65601 8.74443 2.50667C7.97658 0.661332 6.29884 0 4.94415 0C3.13065 0 1.13329 1.21603 0.866623 3.72256V4.23465C0.866623 4.25603 0.873988 4.448 0.884451 4.54403C1.03394 5.73858 1.97652 7.00812 2.68049 8.20267C3.43785 9.48251 4.22372 10.7415 5.00232 12C5.48241 11.1787 5.96078 10.3467 6.42994 9.54668C6.5578 9.3119 6.70623 9.07727 6.83423 8.85318C6.91955 8.70397 7.08254 8.55476 7.157 8.41594C7.91434 7.02936 9.13335 5.63206 9.13335 4.256V3.6907C9.13338 3.54152 8.94846 3.01885 8.93806 2.98668ZM4.97735 5.5574C4.44427 5.5574 3.86078 5.29085 3.57277 4.55472C3.52986 4.43754 3.53332 4.20271 3.53332 4.1812V3.85053C3.53332 2.9121 4.33013 2.48535 5.02333 2.48535C5.87672 2.48535 6.53674 3.16811 6.53674 4.0215C6.53674 4.87487 5.83074 5.5574 4.97735 5.5574Z" fill="#0D9FEA"/>
</svg>
