<svg width="10" height="12" viewBox="0 0 10 12" fill="none" xmlns="http://www.w3.org/2000/svg">
<path d="M8.93804 2.98668C8.89533 2.82659 8.80859 2.65601 8.74442 2.50667C7.97656 0.661332 6.29882 0 4.94413 0C3.13063 0 1.13327 1.21603 0.866608 3.72256V4.23465C0.866608 4.25603 0.873973 4.448 0.884435 4.54403C1.03392 5.73858 1.97651 7.00812 2.68047 8.20267C3.43783 9.48251 4.22371 10.7415 5.0023 12C5.4824 11.1787 5.96076 10.3467 6.42992 9.54668C6.55779 9.3119 6.70621 9.07727 6.83422 8.85318C6.91953 8.70397 7.08252 8.55476 7.15699 8.41594C7.91432 7.02936 9.13334 5.63206 9.13334 4.256V3.6907C9.13336 3.54152 8.94845 3.01885 8.93804 2.98668ZM4.97733 5.5574C4.44425 5.5574 3.86076 5.29085 3.57276 4.55472C3.52985 4.43754 3.53331 4.20271 3.53331 4.1812V3.85053C3.53331 2.9121 4.33012 2.48535 5.02331 2.48535C5.8767 2.48535 6.53672 3.16811 6.53672 4.0215C6.53672 4.87487 5.83072 5.5574 4.97733 5.5574Z" fill="#0D9FEA"/>
</svg>
