<svg width="40" height="30" viewBox="0 0 40 30" fill="none" xmlns="http://www.w3.org/2000/svg">
<path d="M37.4957 16.2295C39.0974 14.4791 40 12.18 40 9.78259C40 4.50868 35.7087 0.217377 30.4348 0.217377C27.4243 0.217377 24.6339 1.63477 22.8322 4.01477C21.9052 3.80694 20.9557 3.69564 20 3.69564C13.7974 3.69564 8.43913 8.14781 7.22522 14.1609C3.19043 14.4696 0 17.8443 0 21.9565C0 26.2713 3.5113 29.7826 7.82609 29.7826H32.1739C36.4887 29.7826 40 26.2713 40 21.9565C40 19.7739 39.0774 17.7 37.4957 16.2295ZM23.9087 5.47129C25.3617 3.27042 27.8017 1.95651 30.4348 1.95651C34.7496 1.95651 38.2609 5.46781 38.2609 9.78259C38.2609 12.0209 37.3 14.1539 35.6209 15.6382C34.1965 16.9087 32.3548 17.6087 30.4348 17.6087C29.2548 17.6087 28.1322 17.3565 27.0983 16.86C27.0965 16.8591 27.0948 16.8582 27.093 16.8574C24.3687 15.5713 22.6087 12.7948 22.6087 9.78259C22.6087 8.24085 23.0574 6.75042 23.9087 5.47129ZM32.1739 28.0435H7.82609C4.46957 28.0435 1.73913 25.313 1.73913 21.9565C1.73913 18.6 4.46956 15.8695 7.78261 15.8617C7.79217 15.8635 7.80261 15.8635 7.81304 15.8643C7.81739 15.8652 7.82087 15.8678 7.82522 15.8687C7.86522 15.8748 7.90522 15.8774 7.94522 15.8774C7.94609 15.8774 7.94783 15.8774 7.9487 15.8774C8.40174 15.8774 8.86783 15.9365 9.33478 16.0539C9.3687 16.0687 9.40435 16.0809 9.44087 16.0904C10.9713 16.5078 12.3052 17.5374 13.1 18.913C13.3391 19.3287 13.8713 19.4713 14.2878 19.2304C14.7035 18.9904 14.8461 18.4582 14.6052 18.0426C13.6043 16.3104 11.9391 15.0061 10.0217 14.4478C9.98174 14.4296 9.94 14.4148 9.89652 14.4035C9.59217 14.3217 9.28783 14.26 8.98348 14.2165C10.1443 9.15042 14.7226 5.43477 20 5.43477C20.6191 5.43477 21.2348 5.49129 21.8417 5.59303C21.2052 6.89042 20.8696 8.31651 20.8696 9.78259C20.8696 13.4626 23.02 16.8565 26.3478 18.4287C27.6174 19.0382 28.993 19.3478 30.4348 19.3478C32.5339 19.3478 34.5539 18.6591 36.2026 17.4043C37.5 18.553 38.2609 20.2096 38.2609 21.9565C38.2609 25.313 35.5304 28.0435 32.1739 28.0435Z" fill="#AAAAAA"/>
</svg>
