<svg width="24" height="20" viewBox="0 0 24 20" fill="none" xmlns="http://www.w3.org/2000/svg">
<path d="M12 4C12.2764 4 12.5 3.77636 12.5 3.49998V2.49999C12.5 2.22362 12.2764 1.99998 12 1.99998C11.7236 1.99998 11.5 2.22362 11.5 2.49999V3.49998C11.5 3.77636 11.7236 4 12 4Z" fill="#AAAAAA"/>
<path d="M7.68308 3.52296C7.54443 3.2832 7.23824 3.2007 6.99997 3.33987C6.76072 3.47806 6.67869 3.78373 6.81688 4.02298L7.3169 4.88872C7.40966 5.04936 7.57766 5.1387 7.75049 5.1387C7.83547 5.1387 7.9214 5.11724 8.00001 5.07181C8.23926 4.93363 8.32129 4.62795 8.1831 4.3887L7.68308 3.52296Z" fill="#AAAAAA"/>
<path d="M4.88867 7.31686L4.02294 6.81684C3.7827 6.67818 3.47802 6.76021 3.33983 6.99993C3.20164 7.23918 3.28367 7.54486 3.52292 7.68305L4.38866 8.18306C4.46726 8.22848 4.55319 8.24995 4.63817 8.24995C4.81105 8.24995 4.979 8.16061 5.07176 7.99997C5.20995 7.76072 5.12792 7.45504 4.88867 7.31686Z" fill="#AAAAAA"/>
<path d="M20.477 16.3169L19.6113 15.8169C19.3715 15.6782 19.0659 15.7602 18.9282 16C18.79 16.2392 18.8721 16.5449 19.1113 16.6831L19.977 17.1831C20.0556 17.2285 20.1416 17.25 20.2265 17.25C20.3994 17.25 20.5674 17.1606 20.6601 17C20.7983 16.7608 20.7163 16.4551 20.477 16.3169Z" fill="#AAAAAA"/>
<path d="M3.99998 12C3.99998 11.7236 3.77634 11.5 3.49997 11.5H2.49999C2.22361 11.5 1.99997 11.7236 1.99997 12C1.99997 12.2764 2.22361 12.5 2.49999 12.5H3.49997C3.77639 12.5 3.99998 12.2764 3.99998 12Z" fill="#AAAAAA"/>
<path d="M22 12C22 11.7236 21.7763 11.5 21.5 11.5H20.5C20.2236 11.5 20 11.7236 20 12C20 12.2764 20.2236 12.5 20.5 12.5H21.5C21.7764 12.5 22 12.2764 22 12Z" fill="#AAAAAA"/>
<path d="M4.38866 15.8169L3.52292 16.3169C3.28367 16.4551 3.20164 16.7607 3.33983 17C3.43259 17.1606 3.60059 17.25 3.77342 17.25C3.85841 17.25 3.94433 17.2285 4.02294 17.1831L4.88867 16.6831C5.12792 16.5449 5.20995 16.2392 5.07176 16C4.93311 15.7602 4.62598 15.6782 4.38866 15.8169Z" fill="#AAAAAA"/>
<path d="M19.3618 8.25004C19.4468 8.25004 19.5327 8.22857 19.6113 8.18315L20.477 7.68314C20.7163 7.54495 20.7983 7.23928 20.6601 7.00003C20.521 6.76027 20.2148 6.67824 19.977 6.81694L19.1113 7.31695C18.8721 7.45514 18.79 7.76081 18.9282 8.00006C19.021 8.16065 19.189 8.25004 19.3618 8.25004Z" fill="#AAAAAA"/>
<path d="M17 3.33984C16.7607 3.20067 16.4546 3.28322 16.3169 3.52294L15.8169 4.38867C15.6787 4.62792 15.7607 4.93359 16 5.07178C16.0786 5.1172 16.1645 5.13867 16.2495 5.13867C16.4224 5.13867 16.5903 5.04933 16.6831 4.88869L17.1831 4.02295C17.3213 3.78366 17.2392 3.47803 17 3.33984Z" fill="#AAAAAA"/>
<path d="M12 2.28882e-05C5.38331 2.28882e-05 0 5.38334 0 12C0 14.0039 0.504891 15.9888 1.46044 17.7398C1.59277 17.982 1.896 18.0709 2.13914 17.939C2.38134 17.8067 2.47069 17.503 2.33836 17.2603C1.46287 15.6563 0.999984 13.837 0.999984 12C0.999984 5.93459 5.93456 1.00001 12 1.00001C18.0654 1.00001 23 5.93459 23 12C23 13.837 22.5371 15.6563 21.6616 17.2603C21.5293 17.503 21.6187 17.8067 21.8609 17.939C21.937 17.9805 22.0191 18 22.1001 18C22.2773 18 22.4488 17.9058 22.5396 17.7398C23.4951 15.9888 24 14.0039 24 12C24 5.38329 18.6167 2.28882e-05 12 2.28882e-05Z" fill="#AAAAAA"/>
<path d="M12.498 6.45607C12.4756 6.19826 12.2593 6.00002 12 6.00002C11.7407 6.00002 11.5244 6.19826 11.5019 6.45607L10.6147 16.5645C10.2217 16.9414 9.99997 17.4531 9.99997 18C9.99997 19.103 10.8969 20 12 20C13.103 20 14 19.1031 14 18C14 17.4531 13.7783 16.9414 13.3852 16.5645L12.498 6.45607ZM12 19C11.4487 19 11 18.5513 11 18C11 17.6899 11.1455 17.4014 11.3984 17.208C11.5102 17.1226 11.5811 16.9941 11.5933 16.8545L12 12.2197L12.4067 16.8545C12.4189 16.9941 12.4897 17.1226 12.6015 17.208C12.8545 17.4014 13 17.6899 13 18C13 18.5513 12.5512 19 12 19Z" fill="#AAAAAA"/>
</svg>
