<svg width="24" height="16" viewBox="0 0 24 16" fill="none" xmlns="http://www.w3.org/2000/svg">
<path d="M19.9012 1.28105C20.8252 1.78505 21.6981 2.26088 23.4783 2.26088C23.7668 2.26088 24 2.49462 24 2.78262C24 3.07062 23.7668 3.30436 23.4783 3.30436C21.4331 3.30436 20.4016 2.74228 19.4037 2.1985L19.4014 2.19723C18.4774 1.69323 17.6045 1.2174 15.8243 1.2174C14.0442 1.2174 13.1713 1.69323 12.2468 2.19723L12.2452 2.19807C11.2476 2.74199 10.2162 3.30436 8.17043 3.30436C6.12574 3.30436 5.09426 2.74169 4.09693 2.19764C3.17347 1.69365 2.30084 1.2174 0.521739 1.2174C0.233217 1.2174 0 0.983661 0 0.69566C0 0.40766 0.233217 0.17392 0.521739 0.17392C2.56644 0.17392 3.59791 0.736592 4.59524 1.28064C5.5187 1.78463 6.39133 2.26088 8.17043 2.26088C9.95061 2.26088 10.8235 1.78505 11.748 1.28105L11.7495 1.28021C12.7472 0.736296 13.7786 0.17392 15.8243 0.17392C17.8695 0.17392 18.901 0.736 19.8989 1.27978L19.9012 1.28105Z" fill="#AAAAAA"/>
<path d="M19.9012 5.45497C20.8252 5.95897 21.6981 6.4348 23.4783 6.4348C23.7668 6.4348 24 6.66854 24 6.95654C24 7.24454 23.7668 7.47827 23.4783 7.47827C21.4331 7.47827 20.4016 6.91619 19.4037 6.37242L19.4014 6.37114C18.4774 5.86714 17.6045 5.39132 15.8243 5.39132C14.0442 5.39132 13.1713 5.86714 12.2468 6.37114L12.2452 6.37199C11.2476 6.9159 10.2162 7.47827 8.17043 7.47827C6.12574 7.47827 5.09426 6.9156 4.09693 6.37156C3.17347 5.86757 2.30084 5.39132 0.521739 5.39132C0.233217 5.39132 0 5.15758 0 4.86958C0 4.58158 0.233217 4.34784 0.521739 4.34784C2.56644 4.34784 3.59791 4.91051 4.59524 5.45455C5.5187 5.95855 6.39133 6.4348 8.17043 6.4348C9.95061 6.4348 10.8235 5.95897 11.748 5.45497L11.7496 5.45413C12.7472 4.91021 13.7786 4.34784 15.8243 4.34784C17.8695 4.34784 18.901 4.90992 19.8989 5.4537L19.9012 5.45497Z" fill="#AAAAAA"/>
<path d="M23.4783 14.7826C21.6981 14.7826 20.8252 14.3068 19.9012 13.8028L19.8989 13.8015C18.901 13.2577 17.8695 12.6956 15.8243 12.6956C13.7786 12.6956 12.7472 13.258 11.7496 13.8019L11.748 13.8028C10.8235 14.3068 9.95061 14.7826 8.17043 14.7826C6.39133 14.7826 5.5195 14.3068 4.59604 13.8028C3.59871 13.2588 2.56644 12.6956 0.521739 12.6956C0.233217 12.6956 0 12.9294 0 13.2174C0 13.5054 0.233217 13.7391 0.521739 13.7391C2.30084 13.7391 3.17267 14.2149 4.09613 14.7189C5.09346 15.263 6.12574 15.8261 8.17043 15.8261C10.2162 15.8261 11.2476 15.2637 12.2452 14.7198L12.2468 14.719C13.1713 14.215 14.0442 13.7391 15.8243 13.7391C17.6045 13.7391 18.4774 14.215 19.4014 14.719L19.4037 14.7202C20.4016 15.264 21.4331 15.8261 23.4783 15.8261C23.7668 15.8261 24 15.5923 24 15.3043C24 15.0163 23.7668 14.7826 23.4783 14.7826Z" fill="#AAAAAA"/>
<path d="M19.9012 9.62885C20.8252 10.1329 21.6981 10.6087 23.4783 10.6087C23.7668 10.6087 24 10.8424 24 11.1304C24 11.4184 23.7668 11.6521 23.4783 11.6521C21.4331 11.6521 20.4016 11.0901 19.4037 10.5463L19.4014 10.545C18.4774 10.041 17.6045 9.5652 15.8243 9.5652C14.0442 9.5652 13.1713 10.041 12.2468 10.545L12.2452 10.5459C11.2476 11.0898 10.2162 11.6521 8.17043 11.6521C6.12574 11.6521 5.09426 11.0895 4.09693 10.5454C3.17347 10.0414 2.30084 9.5652 0.521739 9.5652C0.233217 9.5652 0 9.33146 0 9.04346C0 8.75547 0.233217 8.52173 0.521739 8.52173C2.56644 8.52173 3.59791 9.0844 4.59524 9.62844C5.5187 10.1324 6.39134 10.6087 8.17043 10.6087C9.95061 10.6087 10.8235 10.1329 11.748 9.62885L11.7495 9.62801C12.7472 9.0841 13.7786 8.52173 15.8243 8.52173C17.8695 8.52173 18.901 9.08381 19.8989 9.62758L19.9012 9.62885Z" fill="#AAAAAA"/>
</svg>
