<svg width="24" height="20" viewBox="0 0 24 20" fill="none" xmlns="http://www.w3.org/2000/svg">
<path d="M23.5 15C22.1108 15 21.1538 15.0642 20.4164 15.1594C20.7409 14.3037 20.9204 13.4129 20.971 12.5H23.5C23.7764 12.5 24 12.2764 24 12C24 11.7236 23.7764 11.5 23.5 11.5H20.9747C20.8582 9.39586 20.0197 7.48589 18.6979 6.00956L20.4854 4.22166C20.6807 4.02633 20.6807 3.70992 20.4854 3.51464C20.29 3.31931 19.9736 3.31931 19.7783 3.51464L17.9909 5.3025C16.5146 3.98053 14.6045 3.1418 12.5 3.02536V0.49997C12.5 0.223595 12.2764 -4.57764e-05 12 -4.57764e-05C11.7236 -4.57764e-05 11.5 0.223595 11.5 0.49997V3.02531C9.39553 3.14175 7.48538 3.98053 6.00914 5.30245L4.22166 3.51459C4.02633 3.31927 3.70992 3.31927 3.51464 3.51459C3.31931 3.70992 3.31931 4.02633 3.51464 4.22161L5.30212 6.00952C3.98034 7.48589 3.1418 9.39586 3.02531 11.5H0.500016C0.223641 11.5 0 11.7236 0 12C0 12.2764 0.223641 12.5 0.500016 12.5H3.02897C3.07964 13.413 3.25908 14.3039 3.58359 15.1594C2.84653 15.0642 1.88958 15 0.500016 15C0.223641 15 0 15.2236 0 15.5C0 15.7763 0.223641 16 0.500016 16C3.18848 16 4.13283 16.2358 5.1338 16.4853C6.14845 16.7383 7.19728 17 10.0088 17C10.2852 17 10.5088 16.7763 10.5088 16.5C10.5088 16.2236 10.2852 16 10.0088 16C7.32033 16 6.37598 15.7642 5.37502 15.5146C5.17777 15.4655 4.97503 15.4164 4.76255 15.3686C4.26286 14.3018 4.00003 13.1713 4.00003 12C3.99998 7.58888 7.58888 3.99999 12 3.99999C16.4111 3.99999 20 7.58888 20 12C20 13.1714 19.7371 14.3019 19.2375 15.3683C19.0243 15.4163 18.8209 15.4654 18.6231 15.5146C17.6211 15.7642 16.6758 16 13.9873 16C13.7109 16 13.4873 16.2236 13.4873 16.5C13.4873 16.7764 13.7109 17 13.9873 17C16.7988 17 17.8486 16.7383 18.8643 16.4854C19.8652 16.2358 20.8115 16 23.5 16C23.7764 16 24 15.7763 24 15.5C24 15.2236 23.7764 15 23.5 15Z" fill="#AAAAAA"/>
<path d="M14 15C14.1279 15 14.2559 14.9512 14.3535 14.8535C14.5489 14.6582 14.5489 14.3418 14.3535 14.1465L12.3541 12.1471C12.3079 12.1007 12.2525 12.0639 12.1909 12.0384C12.0687 11.9879 11.9313 11.9879 11.8091 12.0384C11.7475 12.0639 11.6921 12.1007 11.6459 12.1471L9.64647 14.1465C9.45114 14.3418 9.45114 14.6582 9.64647 14.8535C9.84179 15.0488 10.1582 15.0488 10.3535 14.8535L11.4999 13.707V19.5C11.4999 19.7764 11.7236 20 12 20C12.2763 20 12.5 19.7764 12.5 19.5V13.707L13.6464 14.8535C13.7441 14.9512 13.8721 15 14 15Z" fill="#AAAAAA"/>
</svg>
