<svg width="24" height="22" viewBox="0 0 24 22" fill="none" xmlns="http://www.w3.org/2000/svg">
<path d="M23.5 15C22.1108 15 21.1538 15.0642 20.4164 15.1593C20.7409 14.3037 20.9204 13.4129 20.971 12.5H23.5C23.7764 12.5 24 12.2763 24 12C24 11.7236 23.7764 11.5 23.5 11.5H20.9747C20.8582 9.39583 20.0197 7.48586 18.6979 6.00953L20.4854 4.22163C20.6807 4.0263 20.6807 3.70989 20.4854 3.51461C20.29 3.31928 19.9736 3.31928 19.7783 3.51461L17.9909 5.30247C16.5146 3.9805 14.6045 3.14177 12.5 3.02533V0.499985C12.5 0.22361 12.2764 -3.05176e-05 12 -3.05176e-05C11.7236 -3.05176e-05 11.5 0.22361 11.5 0.499985V3.02533C9.39553 3.14177 7.48538 3.98055 6.00914 5.30247L4.2217 3.51466C4.02638 3.31933 3.70997 3.31933 3.51469 3.51466C3.31936 3.70999 3.31936 4.02639 3.51469 4.22167L5.30217 6.00958C3.98039 7.48591 3.14184 9.39587 3.02536 11.5H0.500016C0.223641 11.5 0 11.7236 0 12C0 12.2763 0.223641 12.5 0.500016 12.5H3.02897C3.07964 13.413 3.25908 14.3038 3.58359 15.1594C2.84653 15.0642 1.88958 15 0.500016 15C0.223641 15 0 15.2236 0 15.5C0 15.7764 0.223641 16 0.500016 16C3.18848 16 4.13283 16.2358 5.1338 16.4853C6.14845 16.7383 7.19728 17 10.0088 17C10.2852 17 10.5088 16.7763 10.5088 16.5C10.5088 16.2236 10.2852 16 10.0088 16C7.32033 16 6.37598 15.7641 5.37502 15.5146C5.17777 15.4654 4.97503 15.4164 4.76255 15.3685C4.26286 14.3018 4.00003 13.1713 4.00003 12C4.00003 7.58884 7.58892 3.99995 12 3.99995C16.4112 3.99995 20.0001 7.58884 20.0001 12C20.0001 13.1714 19.7372 14.3019 19.2375 15.3683C19.0243 15.4162 18.8209 15.4653 18.6231 15.5146C17.6212 15.7641 16.6758 16 13.9874 16C13.711 16 13.4873 16.2236 13.4873 16.5C13.4873 16.7763 13.711 17 13.9874 17C16.7989 17 17.8487 16.7383 18.8643 16.4853C19.8653 16.2358 20.8116 16 23.5001 16C23.7765 16 24.0001 15.7764 24.0001 15.5C24 15.2236 23.7764 15 23.5 15Z" fill="#AAAAAA"/>
<path d="M13.6465 19.1465L12.5 20.293V14.5C12.5 14.2236 12.2764 14 12 14C11.7236 14 11.5 14.2236 11.5 14.5V20.293L10.3535 19.1465C10.1582 18.9512 9.84178 18.9512 9.6465 19.1465C9.45117 19.3418 9.45117 19.6582 9.6465 19.8535L11.6459 21.8529C11.6922 21.8993 11.7476 21.9361 11.8091 21.9616C11.8702 21.9868 11.935 22 12 22C12.0651 22 12.1299 21.9868 12.191 21.9616C12.2525 21.9361 12.3079 21.8993 12.3542 21.8529L14.3536 19.8535C14.5489 19.6582 14.5489 19.3418 14.3536 19.1465C14.1582 18.9512 13.8418 18.9512 13.6465 19.1465Z" fill="#AAAAAA"/>
</svg>
